<svg width="19" height="20" viewBox="0 0 19 20" fill="none" xmlns="http://www.w3.org/2000/svg">
<path d="M17.9813 11.3504L16.4375 5.79612C15.985 4.16895 15.0016 2.73973 13.6436 1.73562C12.2856 0.731523 10.6309 0.210169 8.94257 0.254434C7.25424 0.298699 5.62915 0.906043 4.32562 1.97993C3.02209 3.05381 2.11492 4.5326 1.74832 6.18124L0.553132 11.5559C0.421113 12.1498 0.424166 12.7658 0.562064 13.3583C0.699962 13.9509 0.969184 14.5049 1.34986 14.9794C1.73053 15.454 2.21292 15.837 2.76144 16.1002C3.30995 16.3634 3.91056 16.5 4.51895 16.5H5.42407C5.61055 17.4184 6.10879 18.244 6.83436 18.8371C7.55993 19.4301 8.46822 19.7541 9.40532 19.7541C10.3424 19.7541 11.2507 19.4301 11.9763 18.8371C12.7019 18.244 13.2001 17.4184 13.3866 16.5H14.0674C14.6937 16.5 15.3115 16.3553 15.8726 16.077C16.4337 15.7988 16.9229 15.3946 17.3019 14.896C17.6809 14.3974 17.9395 13.818 18.0575 13.2029C18.1755 12.5878 18.1497 11.9538 17.9821 11.3504H17.9813ZM9.40532 18.125C8.90298 18.1229 8.41356 17.9657 8.004 17.6748C7.59445 17.3839 7.28476 16.9736 7.11732 16.5H11.6933C11.5259 16.9736 11.2162 17.3839 10.8066 17.6748C10.3971 17.9657 9.90766 18.1229 9.40532 18.125ZM16.0077 13.9122C15.7813 14.2125 15.488 14.456 15.151 14.6231C14.814 14.7902 14.4428 14.8765 14.0666 14.875H4.51895C4.15396 14.8749 3.79364 14.7929 3.4646 14.635C3.13555 14.477 2.84617 14.2472 2.61783 13.9625C2.38948 13.6777 2.22799 13.3454 2.14528 12.9899C2.06256 12.6344 2.06074 12.2648 2.13994 11.9086L3.33432 6.53306C3.62223 5.2381 4.33476 4.07655 5.35863 3.23305C6.3825 2.38954 7.65895 1.91251 8.98507 1.87777C10.3112 1.84303 11.6109 2.25258 12.6775 3.04131C13.7441 3.83005 14.5165 4.9527 14.8718 6.23081L16.4156 11.7851C16.5176 12.1469 16.5338 12.5276 16.463 12.8968C16.3922 13.2661 16.2363 13.6137 16.0077 13.9122Z" fill="white"/>
</svg>
